<svg width="24" height="24" viewBox="0 0 24 24" fill="none" xmlns="http://www.w3.org/2000/svg" class="hover:fill-current">
<g clip-path="url(#clip0_175_81)">
<path d="M16 0C12.831 0 10 2.113 10 5.003C10 6.028 10.369 7.035 11.023 7.815C11.05 8.731 10.511 10.043 10.027 10.999C11.328 10.764 13.177 10.245 14.015 9.731C14.723 9.903 15.402 9.982 16.043 9.982C19.586 9.982 21.999 7.564 21.999 5.002C22 2.098 19.149 0 16 0ZM13.5 5.75C13.086 5.75 12.75 5.414 12.75 5C12.75 4.586 13.086 4.25 13.5 4.25C13.914 4.25 14.25 4.586 14.25 5C14.25 5.414 13.914 5.75 13.5 5.75ZM16 5.75C15.586 5.75 15.25 5.414 15.25 5C15.25 4.586 15.586 4.25 16 4.25C16.414 4.25 16.75 4.586 16.75 5C16.75 5.414 16.414 5.75 16 5.75ZM18.5 5.75C18.086 5.75 17.75 5.414 17.75 5C17.75 4.586 18.086 4.25 18.5 4.25C18.914 4.25 19.25 4.586 19.25 5C19.25 5.414 18.914 5.75 18.5 5.75ZM12 12.604V18H4V8H8.766C8.117 6.784 7.853 5.436 8.092 4H4C2.895 4 2 4.896 2 6V20.678C1.998 22.891 4.503 24 8.006 24C11.504 24 14 22.894 14 20.678V11.953C13.365 12.21 12.66 12.429 12 12.604ZM8 22C7.447 22 7 21.552 7 21C7 20.448 7.447 20 8 20C8.553 20 9 20.448 9 21C9 21.552 8.553 22 8 22Z" fill="white"/>
</g>
<defs>
<clipPath id="clip0_175_81">
<rect width="24" height="24" fill="white" />
</clipPath>
</defs>
</svg>
